<?xml version="1.0" encoding="UTF-8"?>
<svg width="20px" height="19px" viewBox="0 0 20 19" version="1.1" xmlns="http://www.w3.org/2000/svg" xmlns:xlink="http://www.w3.org/1999/xlink">
    <title>0D3C6EB1-DEF3-4E92-A49E-561CC99D2D4E</title>
    <g id="Page-1" stroke="none" stroke-width="1" fill="none" fill-rule="evenodd">
        <g id="커뮤니티---타임라인(미완)" transform="translate(-294.000000, -70.000000)" stroke="#CFCDDA" stroke-width="1.5">
            <path d="M302,70.75 C304.002032,70.75 305.814532,71.5614839 307.126524,72.8734758 C308.438516,74.1854678 309.25,75.9979678 309.25,78 C309.25,79.7406331 308.636832,81.3381216 307.614103,82.5877458 L307.614103,82.5877458 L312.895964,87.7969267 L307.510168,82.7119339 C306.180478,84.2654854 304.205203,85.25 302,85.25 C299.997968,85.25 298.185468,84.4385161 296.873476,83.1265242 C295.561484,81.8145322 294.75,80.0020322 294.75,78 C294.75,75.9979678 295.561484,74.1854678 296.873476,72.8734758 C298.185468,71.5614839 299.997968,70.75 302,70.75 Z" id="Search-Copy-2"></path>
        </g>
    </g>
</svg>